<svg xmlns="http://www.w3.org/2000/svg" viewBox="84.27118644067795 -8.831299817470708 831.457627118644 1098.1842632594523" width="700" height="925">

<g transform="translate(72.88,650.00) scale(0.8475,-0.8475)"><path d="M277 400 288 0H66V708H377L505 327H510L621 708H942V0H711L718 398L712 399L580 0H412L282 400Z" fill="#0a0e17" opacity="1" /></g><g transform="translate(136.05,555.75) scale(0.9800,-0.9800)"><path d="M237 -334Q320 -363 433.0 -366.5Q546 -370 688 -346Q733 -337 734 -349Q736 -366 708 -381L578 -458Q561 -468 536.5 -474.0Q512 -480 480 -482Q415 -486 362.0 -483.5Q309 -481 267 -471Q22 -409 63 -115Q84 36 177 154Q70 202 76 249Q93 389 201 462Q241 489 293 458Q330 436 349 409Q356 398 353 389Q350 380 325 386Q216 408 125 304Q198 245 286 251Q298 253 326 270Q369 298 398.0 316.5Q427 335 443 344Q490 371 481 334L450 258Q444 244 431 237Q358 204 256 130Q116 30 101 -128Q86 -281 237 -334Z" fill="#3ab7ff" opacity="1" /></g>
</svg>